<?xml version="1.0" encoding="UTF-8"?><svg id="b" xmlns="http://www.w3.org/2000/svg" width="240" height="370.42" viewBox="0 0 240 370.42"><g id="c"><path fill="#ed1d24" d="M26.69,92.86s7.81-62.78,69.42-63.57l-7.41-6.62s-50.51-2.54-57.32,4.29c-6.83,6.82-11.32,62.39-11.32,62.39l5.86,1.96"/><line fill="#ed1d24" x1="11.09" y1="5.11" x2="84.8" y2="80.77"/><path fill="#ed1d24" d="M7.51,8.7c24.57,25.22,49.14,50.43,73.71,75.66,4.57,4.69,11.72-2.49,7.16-7.16C63.82,51.98,39.24,26.76,14.68,1.52c-4.57-4.68-11.72,2.5-7.16,7.17"/><polygon fill="#ed1d24" points="63.74 88.18 69.59 95.59 80.13 76.09 99.24 73.36 92.22 64.77 71.54 65.57 63.74 88.18"/><path fill="#0066a6" d="M203.79,112.24h-86.8c-14.31,0-25.91,11.6-25.91,25.92v94.45c0,14.3,11.6,25.91,25.91,25.91h86.8c14.32,0,25.91-11.61,25.91-25.91v-94.45c0-14.32-11.6-25.92-25.91-25.92M118.3,244.27c-6.45,0-11.67-5.21-11.67-11.65s5.22-11.65,11.67-11.65,11.65,5.22,11.65,11.65-5.22,11.65-11.65,11.65M201.2,244.27c-6.44,0-11.66-5.21-11.66-11.65s5.22-11.65,11.66-11.65,11.66,5.22,11.66,11.65-5.23,11.65-11.66,11.65M218.04,181.96c0,7.16-5.8,12.96-12.93,12.96h-89.4c-7.16,0-12.96-5.81-12.96-12.96v-28.5c0-7.15,5.81-12.95,12.96-12.95h89.4c7.14,0,12.93,5.81,12.93,12.95v28.5Z"/><path fill="#0066a6" d="M180.48,95.4c0-4.3-3.49-7.78-7.79-7.78s-7.77,3.48-7.77,7.78,3.49,7.78,7.77,7.78,7.79-3.5,7.79-7.78"/><path fill="#0066a6" d="M157.16,95.4c0-4.3-3.5-7.78-7.79-7.78s-7.77,3.48-7.77,7.78,3.5,7.78,7.77,7.78,7.79-3.5,7.79-7.78"/><path fill="#0066a6" d="M90.89,286.52h23.86l28.1-31.93-18.02-10.26-33.94,42.2ZM198.06,244.63l-18.33,9.67,26.12,32.23h23.44l-31.23-41.89Z"/><path fill="#ed1d24" d="M156.01,112.24h-86.8c-14.3,0-25.91,11.6-25.91,25.92v94.45c0,14.3,11.6,25.91,25.91,25.91h86.8c14.33,0,25.91-11.61,25.91-25.91v-94.45c0-14.32-11.59-25.92-25.91-25.92M70.52,244.27c-6.44,0-11.66-5.21-11.66-11.65s5.22-11.65,11.66-11.65,11.66,5.22,11.66,11.65-5.22,11.65-11.66,11.65M153.43,244.27c-6.45,0-11.67-5.21-11.67-11.65s5.22-11.65,11.67-11.65,11.66,5.22,11.66,11.65-5.23,11.65-11.66,11.65M170.27,181.96c0,7.16-5.8,12.96-12.93,12.96h-89.41c-7.15,0-12.95-5.81-12.95-12.96v-28.5c0-7.15,5.81-12.95,12.95-12.95h89.41c7.14,0,12.93,5.81,12.93,12.95v28.5Z"/><path fill="#ed1d24" d="M132.71,95.4c0-4.3-3.49-7.78-7.79-7.78s-7.76,3.48-7.76,7.78,3.49,7.78,7.76,7.78,7.79-3.5,7.79-7.78"/><path fill="#ed1d24" d="M109.39,95.4c0-4.3-3.5-7.78-7.79-7.78s-7.77,3.48-7.77,7.78,3.5,7.78,7.77,7.78,7.79-3.5,7.79-7.78"/><path fill="#ed1d24" d="M43.12,286.52h23.86l28.1-31.93-18.03-10.26-33.93,42.2ZM150.29,244.63l-18.33,9.67,26.12,32.23h23.44l-31.23-41.89Z"/><path fill="#0066a6" d="M83.73,304.87l-40.82,50.57h-8.4l-12.01,14.98h78.55l-5.15-65.55h-12.17ZM59.75,355.44l21.17-26.23,2.05,26.23h-23.23Z"/><polygon fill="#0066a6" points="198.79 355.44 217.21 304.87 202.26 304.87 178.38 370.42 234.57 370.42 240 355.44 198.79 355.44"/><path fill="#0066a6" d="M159.21,345.14c5.56,0,11.03-1.96,16.4-5.9,5.38-3.94,9.09-8.68,11.15-14.23.81-2.38,1.22-4.65,1.22-6.83,0-3.94-1.27-7.14-3.8-9.6-2.52-2.48-5.94-3.71-10.25-3.71h-40.74l-23.87,65.54h14.94l9.21-25.28h1.87l14.04,25.28h20.79l-14.36-25.26,3.38-.02ZM138.95,330.16l3.75-10.29h25.8c2.38,0,3.57,1.12,3.57,3.37,0,1.74-.8,3.34-2.39,4.77-1.6,1.44-3.23,2.16-4.92,2.16h-25.81Z"/><polygon fill="#0066a6" fill-rule="evenodd" points="21.38 355.44 9.37 370.42 18.39 370.42 30.36 355.44 21.38 355.44"/><polygon fill="#0066a6" fill-rule="evenodd" points="12.01 355.44 0 370.42 6.14 370.42 18.11 355.44 12.01 355.44"/></g></svg>