<?xml version="1.0" encoding="UTF-8"?>
<svg id="uuid-e708f780-6319-4fe2-afdf-37eaa989fa3e" data-name="Layer 1" xmlns="http://www.w3.org/2000/svg" viewBox="0 0 316.97 412.04">
  <path d="m163.04,412.04c-5.87,0-11.74,0-17.88-.17-9.77-1.06-19.3-1.68-28.75-2.92-8.28-1.09-16.53-2.56-24.67-4.42-12.97-2.96-25.77-6.57-38.18-11.41-3.24-1.27-6.56-2.54-9.47-4.4-4.16-2.65-6.46-7.06-8.39-11.39-3.38-7.59-6.33-15.38-9.37-23.13-1.96-4.99-2.91-10.39-6.44-14.72-1.46-1.79-2.52-3.89-3.98-5.68-1.13-1.38-2.43-2.72-3.92-3.67-6.33-4.02-9.85-9.69-10.6-17.31.02-55.11.02-110.03.02-164.94,0-.43-.03-.86-.02-1.48.02-19,.03-37.81,0-56.61,0-.63-.27-1.27-.41-1.9,0-1.58,0-3.17.17-5.01.35-1.73.42-3.23.74-4.67,1.9-8.58,6.24-15.56,14.01-19.93,10.84-6.11,22.38-10.65,34.25-14.28,2.75-.84,3.77-1.95,4.12-4.65.44-3.39.93-7.07,4.01-9.22,5.98-4.17,11.96-8.39,18.28-12,8.96-5.12,18.61-8.78,28.52-11.65,9.53-2.76,19.22-4.79,29.13-5.63C136.24.67,138.28.29,140.32,0c8.44,0,16.88,0,25.6.17,5.44.51,10.64.56,15.75,1.26,8.34,1.15,16.66,2.57,24.93,4.19,12.27,2.4,24.11,6.22,35.3,11.83,5.97,2.99,11.54,6.61,16.71,10.92,3.64,3.05,6.4,6.29,6.5,11.28.03,1.58.65,2.72,2.51,3.27,14.34,4.16,28.15,9.51,40,18.91,5.17,4.1,8.56,9.33,8.92,16.33.13,1.22.28,2.26.42,3.3,0,0,0,.21-.13.44-.19,1.15-.28,2.07-.28,2.99,0,73.41,0,146.82,0,220.24,0,1.5,0,3,0,4.68-.97,4.63-1.78,9.12-2.94,13.51-1.04,3.93-3.66,6.53-7.65,7.68-.71.2-1.54.59-1.93,1.16-3.13,4.61-6.57,8.96-8.21,14.53-3.09,10.46-8.1,20.13-13.4,29.62-1.74,3.11-3.59,6.25-5.9,8.94-4.09,4.75-9.76,7.3-15.45,9.55-15.29,6.05-31.36,9.02-47.5,11.56-8.28,1.3-16.63,2.2-24.98,3.08-8.15.86-16.33,1.46-24.5,2.19-.36.03-.7.27-1.05.41" style="fill: #0a0a0b;"/>
  <path d="m79.32,224.17c3.21.51,6.42.98,9.65,1.39,14.21,1.83,28.52,2.97,42.8,3.82.01,0,.03,0,.04,0,19.26.14,38.52.02,57.77-.36,8.43-.17,16.86-.8,25.28-1.3,3-.18,5.99-.48,8.97-.9,7.33-1.04,14.66-2.13,21.98-3.32,2.71-.44,5.41-.96,8.08-1.56h.04s21.22-6.17,21.22-6.17c1.48-.54,3.22-1.14,4.55-1.86.59-6.16,1.18-10.77,1.66-16.75.52-6.49.84-12.99,1.3-19.49.55-7.76,1.14-15.53,1.72-23.29.56-7.48,1.14-14.96,1.71-22.44.58-7.76,1.18-15.52,1.72-23.29.47-6.71.88-13.42,1.32-20.13.15-2.26.33-4.52.5-6.78.4-5.29.81-10.58,1.2-15.87.08-1.13-.23-1.86-.9-2.22h.01l-.04-.02s-.01,0-.02,0l-2.45-1.25h0c-.05-.02-.1-.06-.16-.08-4.85-2.06-9.63-4.35-14.61-6.06-6.97-2.39-14.15-4.2-21.24-6.2-3.73-1.05-7.48-2-11.28-2.75-6.88-1.36-13.83-2.42-20.77-3.46-4.85-.72-9.73-1.28-14.61-1.76-5.52-.54-11.06-.96-16.59-1.33-9.02-.6-18.04-1.4-27.07-1.59-7.26-.15-14.54.32-21.8.78-8.8.56-17.61,1.18-26.37,2.15-8.19.91-16.36,2.1-24.47,3.55-6.58,1.18-13.02,3.07-19.58,4.39-6.52,1.31-12.62,3.96-19.16,5.36-6.55,1.4-12.72,4.55-19.06,6.94-.11.04-.2.08-.29.13h0s-4.68,2.29-4.68,2.29h.01c-.9.36-1.12,1.01-1,2.18.45,4.5.84,9,1.19,13.51.35,4.37.59,8.75.94,13.13.52,6.55,1.11,13.1,1.65,19.65.33,4.09.58,8.18.91,12.27.54,6.69,1.12,13.38,1.67,20.08.33,4.02.59,8.04.93,12.06.53,6.2,1.13,12.39,1.63,18.58.36,4.51.56,9.04.91,13.55.7,9.02,1.91,17.35,2.79,26.37l42.01,8.03Z" style="fill: #272726;"/>
  <path d="m.4,145.93c-.02.2-.21.21-.31.22C0,126.71,0,107.26,0,87.61c.14.43.41,1.06.41,1.7.02,18.8.02,37.61,0,56.61Z" style="fill: #fff;"/>
  <path d="m315.58,77.68c.02-.19.22-.13.32-.13.1,1.02.1,2.03.1,3.24-.15-.85-.29-1.88-.42-3.11Z" style="fill: #5a2925;"/>
  <path d="m279.7,215.78c-.45,6.68-.88,13.37-1.37,20.05-.65,8.89-1.35,17.77-2.03,26.66-.37,4.76-.68,9.53-1.18,14.28-.08.8-.97,1.51-1.64,2.11.05-3.91.28-7.66.47-11.42.34-6.66.66-13.33,1.02-20.18.68-7.32,1.33-14.45,2-21.68-.51,0-.81-.07-1.06,0-8.4,2.45-16.82,4.81-25.16,7.46-2.35.75-3.8,2.68-4.25,5.41-1.97,11.8-4.12,23.57-6.17,35.36-.75,4.34-1.16,8.42-1.88,12.94-.33,1.33-.66,2.78-.97,3.93-12.31,2.31-25,1.4-37.4,1.43-35.55.09-71.11.11-106.66-.05-5.24-.02-10.51-.82-15.85-1.57-.14-1.67-.13-3.47-.17-5.16-.03-.47-.02-.75-.06-1.04-2.29-15.13-4.52-30.28-6.93-45.39-.57-3.59-2.98-5.94-6.56-6.85-6.75-1.72-13.59-3.37-20.36-5.04-1.06-.26-1.94-.36-3.18-.59.14,2.09.3,3.77.4,5.72.11,1.52.23,2.82.35,4.23,0,.08.02.34-.01.54.17,5.04.32,9.84.57,14.68.49,9.32,1.09,18.84,1.6,28.16-.32-.63-1.06-1.45-1.12-2.1-.72-8.29-1.38-16.59-2.05-24.89-.95-11.77-1.89-23.54-2.73-35.48,2.34.55,4.54,1.45,6.82,1.96,7.92,1.75,15.88,3.15,23.82,4.81,6.18.99,12.32,2.47,18.53,3.13,13.4,1.43,26.81,2.73,40.25,3.75,8.75.66,17.54,1.05,26.31,1.01,14.26-.06,28.53-.31,42.77-.96,18.39-.84,36.76-2.33,54.77-6.36,8.31-1.86,16.42-4.67,24.89-7.15,1.59-.64,2.91-1.18,4.23-1.72Z" style="fill: #e42029;"/>
  <path d="m71.97,345.98c8.25.39,16.29.76,24.49,1.13.87,6.38,1.75,12.8,2.63,19.21.1.71.35,1.42.3,2.11-.35,4.92,3.02,6.65,6.8,8.01,9.69,3.5,19.83,4.61,29.99,5.43,7.96.64,15.96,1.34,23.93,1.15,15.61-.38,31.23-1.25,46.49-5,2.67-.65,5.23-1.81,7.74-2.97,1.67-.78,2.5-2.17,2.69-4.24.69-7.46,1.71-14.88,2.46-22.33.18-1.76,1.26-1.61,2.36-1.66,6.7-.3,13.4-.48,20.1-.89,14.39-.87,28.74-2.08,42.71-5.98.11-.03.25.07.83.25-1.91,4.89-3.52,9.9-5.76,14.59-3.25,6.8-6.99,13.36-10.48,20.04-1.76,3.37-4.84,5.15-8.01,6.79-9.05,4.7-18.84,7.19-28.71,9.36-17.42,3.83-35.09,6.06-52.82,7.83-12.08,1.2-24.16,2.13-36.32,1.47-31.02-1.69-61.02-8.08-90.08-19.07-3.25-1.23-5.65-3.1-6.99-6.14-3.52-7.99-6.94-16.03-10.24-24.11-1.38-3.38-2.36-6.94-3.59-10.62,13.01,3.84,26.13,4.83,39.49,5.63Z" style="fill: #fefefe;"/>
  <path d="m249.12,35.08c5.44,3.04,4.19,8.48,5.31,13.18-64.13-14.24-127.94-15.89-192.01,1.2.58-3.06,1.24-5.95,1.63-8.88.28-2.08,1.26-3.44,2.94-4.66,14.95-10.88,31.68-17.7,49.6-21.81,12.23-2.8,24.65-4.04,37.18-3.77,24.07.52,47.81,3.25,70.65,11.44,8.84,3.17,17.2,7.29,24.71,13.3Z" style="fill: #979797;"/>
  <path d="m289.98,331.08c-.42.67-.87,1.18-1.08,1.77-1.55,4.47-5.1,6.09-9.4,6.7-10.09,1.42-20.15,3.16-30.28,4.17-9.63.96-19.34,1.15-29.31,1.7,1.61-14.02,3.18-27.7,4.75-41.39h80.19c.23,5.42-.88,10.51-2.38,14.75-1.87.88-3.55,1.18-4.43,2.17-2.82,3.2-5.34,6.65-8.07,10.13Z" style="fill: #fffefe;"/>
  <path d="m91.39,309.89c1.61,11.82,3.21,23.46,4.78,34.9-4.97,0-9.73.14-14.48-.03-13.48-.49-26.93-1.34-40.21-3.9-.28-.05-.57-.08-.84-.15q-8.58-1.92-13.6-9.15c-1.46-2.11-2.93-4.22-4.34-6.36-1.45-2.19-3-3.97-5.68-5.04-4.12-1.65-5.48-5.55-5.84-9.71-.18-2.06-.03-4.14-.03-6.37h79.35c.28,1.83.58,3.72.88,5.8Z" style="fill: #fffefe;"/>
  <path d="m29.68,266.96c-9.48-12.73-14.87-27.08-18.43-42.21-.11-.48-.09-.99-.09-1.49,0-20.22,0-40.44,0-60.66v-1.58c.75.96,1.23,1.52,1.64,2.12,11.01,16.07,18.07,33.82,21.8,52.86,1.25,6.38,1.67,12.94,2.22,19.44,1.19,14,2.22,28.02,3.33,42.25-4.15-3.02-7.32-6.76-10.47-10.72Z" style="fill: #e42029;"/>
  <path d="m297.89,170.51c2.17-3.5,4.27-6.87,6.36-10.24.17.06.35.13.52.19.04.59.13,1.18.13,1.77,0,19.86.13,39.71-.11,59.56-.04,3.52-1.39,7.1-2.5,10.53-3.85,11.82-8.16,23.47-15.05,33.92-1.99,3.01-4.52,5.68-6.92,8.39-.86.97-2.1,1.61-3.57,2.71.29-4.39.51-8.26.8-12.13.8-10.74,1.63-21.48,2.44-32.22.35-4.62.18-9.35,1.13-13.85,1.71-8.14,3.59-16.31,6.33-24.14,2.9-8.32,6.88-16.26,10.46-24.5Z" style="fill: #e42029;"/>
  <path d="m23.58,302.27h-12.31v-68.74l.28-.09c.87,2.5,1.73,5.01,2.62,7.5,4.43,12.32,10.35,23.78,19.55,33.3,1.19,1.23,2.35,2.55,3.75,3.48,2.29,1.53,3.09,3.52,3.18,6.21.2,6.04.66,12.08,1.03,18.35h-18.1Z" style="fill: #fefefe;"/>
  <path d="m301.1,241.04c1.2-3.4,2.34-6.65,3.48-9.89.07.02.15.04.22.05v70.93h-29.22c.25-5.79.76-11.55.65-17.29-.08-3.92,1.34-6.2,4.53-8.52,5.83-4.23,9.33-10.55,12.41-16.92,2.88-5.94,5.26-12.13,7.93-18.37Z" style="fill: #fefefe;"/>
  <path d="m29.9,192.73c-4.62-12.09-10.32-23.6-18.15-33.98-.49-.65-.58-1.72-.58-2.59,0-21.35.06-42.7.09-64.05,0-3.14-.04-6.28.06-9.48.46.56.84,1.16,1.15,1.8,4.12,8.45,6.53,17.47,8.54,26.59,5.53,25.09,7.66,50.59,8.98,76.18.09,1.83-.06,3.68-.1,5.52Z" style="fill: #fdfcfc;"/>
  <path d="m304.83,81.54c.02,15.71.04,31.41.06,47.12,0,8.85.01,17.71-.02,26.56,0,.81-.06,1.81-.52,2.39-8.82,11.33-14.44,24.26-18.97,37.75-.25.74-.54,1.46-1.1,2.17.12-3.77.43-7.53.93-11.27,3.09-23.34,5.94-46.71,9.48-69.98,1.48-9.75,4.34-19.31,6.83-28.89.54-2.1,2.18-3.91,3.31-5.85Z" style="fill: #fefefd;"/>
  <path d="m136.78,293.77h86.94v8.51c-4.71,0-9.41,0-14.1,0-5.22,0-10.43.01-15.65-.01-.69,0-1.61.05-2.02-.35-1.78-1.7-3.92-1.4-6.04-1.4-18.15.06-36.3.09-54.44.24-2.14.02-4.28.73-6.42,1.12-.69.13-1.37.38-2.06.38-10,.02-20.01.02-30.01.01-.2,0-.4-.07-.68-.12v-8.39h44.5Z" style="fill: #fafafa;"/>
  <path d="m304.89,81.34c-1.19,2.14-2.82,3.95-3.37,6.05-2.49,9.58-5.35,19.14-6.83,28.89-3.54,23.27-6.39,46.64-9.48,69.98-.5,3.74-.81,7.5-1.08,11.33-.44,2.68-1.01,5.27-1.59,7.86-.17-.03-.34-.06-.51-.09,3.49-46.6,6.99-93.21,10.48-139.83,6.33,1.2,12.21,8.7,12.37,15.82Z" style="fill: #e3232a;"/>
  <path d="m29.9,192.85c.04-1.96.19-3.81.1-5.64-1.32-25.59-3.44-51.09-8.98-76.18-2.01-9.12-4.42-18.14-8.54-26.59-.31-.64-.69-1.24-1.09-1.99.73-7.78,4.58-13.23,11.92-16.71,3.73,46.87,7.44,93.44,11.15,140.01-.1.02-.2.04-.3.05-1.42-4.27-2.83-8.55-4.25-12.94Z" style="fill: #e3232a;"/>
  <path d="m273.16,280.98c.51-.2,1.02-.4,1.67-.65-.32,7.33-.63,14.5-.94,21.8h-48.24v-8.34c12.5-1.34,24.59-4.04,36.71-8.05.11-.11.11-.08.24-.1.3-.09.79-.38,1.11-.44,3.36-1.48,6.24-2.73,9.45-4.21Z" style="fill: #fefefe;"/>
  <path d="m44.24,302.27c-.45-.27-.88-.52-.9-.79-.42-6.68-.8-13.36-1.2-20.26,15.34,7.11,31.41,10.9,48.2,12.57v8.49c-15.24,0-30.57,0-46.1,0Z" style="fill: #fefefe;"/>
  <path d="m226.81,218.59c-.16-1.88-.32-3.57-.49-5.35-.6-.08-1.09-.23-1.56-.18-4.66.45-9.32.93-13.98,1.4-2.33.24-4.65.55-6.99.7-5.39.34-10.79.66-16.19.88-8.54.34-17.08.59-25.62.87-4.48.15-8.97.45-13.45.37-8.11-.15-16.25-.24-24.33-.9-10.25-.83-20.47-2.11-30.67-3.39-5.56-.7-10.62-4.9-12.01-11.8-1.57-7.79-2.9-15.63-4.33-23.45-2.26-12.36-4.53-24.71-6.76-37.07-2.27-12.57-4.5-25.15-6.67-37.73-.12-.67.3-1.62.78-2.17,3.16-3.65,7.55-5.29,11.91-6.86,9.2-3.33,18.76-5.18,28.43-6.48,6.89-.92,13.79-1.81,20.7-2.51,4.81-.49,9.65-.64,14.47-.93,4.68-.28,9.37-.77,14.05-.77,5.26,0,10.51.4,15.77.72,3.9.23,7.8.56,11.69.92,5.58.52,11.17,1.02,16.73,1.68,6.69.79,13.4,1.53,20.04,2.65,9.6,1.63,19.24,3.28,28.11,7.63,1.14.56,2.23,1.29,3.21,2.09,1.6,1.32,2.5,2.84,2.11,5.18-1.06,6.36-1.85,12.78-2.79,19.16-1.07,7.3-2.15,14.6-3.3,21.88-1.24,7.85-2.45,15.71-3.9,23.52-1.87,10.12-3.84,20.23-6,30.29-.87,4.06-1.53,8.5-5.12,11.24-2.37,1.81-2.98,3.68-2.18,6.39.27.92.16,2,.02,2.98-.08.56-.57,1.06-.87,1.59-.27-.49-.57-.97-.78-1.49-.1-.25-.02-.56-.02-1.05m-143.09-78.81c.25,1.11.51,2.22.74,3.34,3.92,18.98,7.84,37.97,11.74,56.96.24,1.19.68,1.72,2.03,1.9,15.02,1.98,30.12,2.96,45.24,2.82,19.04-.18,38.08-.99,57.12-1.71,6.12-.23,12.21-1.07,18.33-1.53,1.37-.1,1.75-.65,1.96-1.93.7-4.29,1.38-8.59,2.39-12.82,2.02-8.45,2.47-16.98,1.58-26.22-.84,4.54-1.58,8.51-2.31,12.48-1.43,7.71-2.85,15.42-4.32,23.12-.09.45-.57.82-.86,1.23-.25-.49-.76-1.01-.72-1.47.13-1.34.49-2.66.74-3.99,3.1-16.67,6.21-33.34,9.3-50.01.6-3.25,1.12-6.52,1.68-9.8H82.24c.49,2.54.95,4.91,1.48,7.63m143.95,32.31c-.14,1.48-.42,2.97-.4,4.45.09,6.49.27,12.97.41,19.46.01.65,0,1.3,0,1.95.67-1.06,1.04-2.12,1.25-3.22,2.02-10.31,4.09-20.61,5.98-30.95,1.3-7.12,2.37-14.28,3.47-21.43,1.12-7.29,2.16-14.6,3.23-21.9.65-4.42,1.31-8.84,1.92-13.27.22-1.59-.14-3.01-1.74-3.79-2.74-1.33-5.38-2.99-8.26-3.9-13.28-4.18-27.06-5.78-40.82-7.33-7.06-.8-14.16-1.12-21.23-1.81-7.67-.75-15.31-1.11-23.01-.43-9.84.87-19.73,1.2-29.54,2.27-8.31.9-16.58,2.31-24.8,3.88-7.07,1.35-13.93,3.48-20.12,7.42-1.83,1.17-2.24,2.6-1.89,4.52,2.14,11.8,4.26,23.61,6.41,35.41,3.27,17.95,6.54,35.89,9.83,53.83.93,5.05,4.78,8.99,9.62,9.71,5.4.8,10.81,1.68,16.25,2.14,9.07.76,18.15,1.54,27.24,1.69,12.12.2,24.26-.2,36.39-.35.21,0,.43-.01.64-.03,8.01-.56,16.02-1.08,24.03-1.69,5.1-.39,10.2-.8,15.28-1.4,1.86-.22,3.88-.66,5.41-1.64,1.35-.87,2.86-2.57,3-4.02.33-3.51-.1-7.1-.24-10.65-.08-1.96-.19-3.92-.29-5.88-1.46,5.43-2.57,10.85-3.5,16.3-.24,1.42-.87,1.67-2.11,1.76-5.74.38-11.47.89-17.22,1.28-9.01.6-18.02,1.16-27.03,1.68-3.84.22-7.68.42-11.53.4-9.63-.05-19.26-.11-28.89-.4-8.53-.26-17.06-.76-25.57-1.3-4.32-.28-8.63-.79-12.91-1.41-.79-.11-1.87-1.16-2.06-1.96-1.01-4.06-1.78-8.19-2.63-12.29-3.12-15.16-6.24-30.33-9.36-45.49-.9-4.36-1.77-8.73-2.73-13.46h148.6c.54-2.97,1.02-5.63,1.52-8.28.83-4.39,1.64-8.79,2.55-13.17.09-.44.72-.78,1.11-1.16.17.47.55.98.47,1.4-1.12,6.22-2.31,12.42-3.45,18.63-.14.79-.12,1.61-.17,2.49,1.67.09,3.05.17,4.58.26-2.58,13.94-5.11,27.61-7.66,41.67m-156.47-36.53c.27,1.25.58,2.49.8,3.75,1.96,10.9,3.91,21.8,5.86,32.69,1.63,9.08,3.36,18.15,4.86,27.25,1.03,6.24,5.13,11.16,10.56,12.02,4.06.64,8.13,1.33,12.22,1.71,8.84.82,17.69,1.57,26.55,2.15,5.4.35,10.83.45,16.24.44,7.56-.02,15.12-.23,22.67-.4,4.63-.1,9.26-.26,13.88-.44,2.63-.1,5.26-.26,7.88-.47,6.44-.52,12.88-1.07,19.31-1.66,4.31-.39,8.62-.82,12.92-1.34.51-.06,1.28-.77,1.34-1.25.18-1.42.06-2.88.06-3.96-2.28.94-4.34,2.2-6.55,2.61-3.97.73-8.02,1.02-12.06,1.35-7.79.63-15.58,1.31-23.38,1.7-9.03.45-18.08.7-27.12.86-4.55.08-9.11-.24-13.67-.37-5.49-.15-10.97-.22-16.46-.47-4.19-.19-8.38-.47-12.54-.93-4.86-.55-9.68-1.49-14.54-2-7.63-.79-12.15-4.81-13.44-12.29-1.03-5.94-2.02-11.9-3.11-17.83-1.49-8.1-3.1-16.17-4.57-24.27-2.78-15.29-5.48-30.6-8.25-45.9-.69-3.8-.58-4.19,2.65-6.36,7.09-4.76,15.23-6.81,23.42-8.21,10.83-1.85,21.76-3.17,32.69-4.34,8.26-.89,16.58-1.53,24.88-1.64,7.16-.09,14.35.59,21.5,1.18,8.63.71,17.27,1.46,25.84,2.61,8.5,1.15,16.97,2.64,25.38,4.34,5.51,1.11,10.95,2.72,15.7,5.96,1.75,1.19,2.82,2.81,2.48,5.06-1.44,9.83-2.8,19.67-4.35,29.48-1.89,11.98-3.72,23.98-5.99,35.9-1.91,10.04-4.49,19.95-6.56,29.96-.48,2.33-.07,4.84-.07,7.52,2.37-1.3,3.53-3.22,4.09-5.35,1.69-6.53,3.42-13.07,4.69-19.69,1.96-10.17,3.58-20.41,5.28-30.63,1.31-7.91,2.56-15.83,3.78-23.75,1.07-6.94,1.93-13.92,3.11-20.84,1.53-8.97,1.26-9.65-6.98-13.06-.2-.08-.4-.15-.6-.22-10.18-3.62-20.81-5.21-31.41-6.81-6.66-1.01-13.39-1.57-20.1-2.25-7.49-.75-14.97-1.58-22.48-2.03-5.45-.32-10.94-.19-16.4-.05-5.47.14-10.95.37-16.41.85-9.97.88-19.93,1.84-29.87,3.01-9.12,1.07-18.14,2.8-26.79,5.96-3.78,1.38-7.37,3.36-10.92,5.29-.88.48-1.76,1.78-1.82,2.75-.09,1.58.5,3.2.79,4.8,1.65,9.08,3.3,18.16,4.97,27.61m157.2,23.54c1.64-8.94,3.27-17.87,4.94-26.98h-3.24c-2,11.18-5.24,22.13-2.95,33.64.39-2.13.77-4.22,1.26-6.66Z" style="fill: #08090b;"/>
  <path d="m246.71,237.63c.37-1.92,2.77-2.38,4.82-3.23,7.61-3.07,15.26-5.39,23.61-7.02-.02.19-.04.37-.06.55,0,0,0,0,0-.01-.33,6.66-.72,32.72-1.06,39.39-.19,3.76-.33,7.58-.53,11.53,0,.72.02,1.33.02,2.05-3.19,1.67-6.65,3.12-10.09,4.52l-5.95,1.9-9.33,2.54-10.9,2.3,9.47-54.5Z" style="fill: #292a37;"/>
  <path d="m251.14,234.52c-1.9.79-2.85,2.32-3.22,4.24-.5,2.58-.9,5.18-1.36,7.77-1.95,11.19-3.92,22.38-5.86,33.58-.25,1.43-.39,2.88-.63,4.64,8.98-2.24,17.45-4.65,25.05-9.38,3.36-2.09,5.89-4.49,6.06-9.08.24-6.87,1.28-13.71,1.95-20.57.48-4.88.92-9.76,1.38-14.65.1-1.09.23-2.17.39-3.65-8.35,1.63-16,3.95-23.76,7.09Zm23.66,12.65c-.28,2.29-.59,4.38-.79,6.48-.48,5.02-.84,10.04-1.39,15.05-.38,3.51-2.83,5.74-5.62,7.36-3.61,2.11-7.32,4.2-11.24,5.6-5.67,2.03-11.57,3.44-17.54,5.11.53-4.35,1.18-8.71,1.94-13.05,2.05-11.79,4.2-23.56,6.17-35.36.46-2.73,1.9-4.67,4.25-5.41,8.33-2.65,16.76-5,25.16-7.46.26-.07.55,0,1.06,0-.66,7.23-1.32,14.36-2,21.68" style="fill: #0b0a0b;"/>
  <path d="m77.51,292.05c-4.07-.49-11.57-2.45-18.9-4.5-1.24-.44-14.55-5.01-15.72-6-.58-9.63-1.09-20.27-1.58-29.76-.25-4.93-1.1-19.74-1.16-24.73.09.31,13.5,4.26,19.11,5.64,1.42.32,2.67.61,3.91.9,4.21.99,7.32,4.78,7.87,8.5l6.24,41.93.24,8.02Z" style="fill: #292a37;"/>
  <path d="m77.22,285.26c-.34.54-.79,1.26-1,1.2-9.76-2.94-19.41-6.08-28.25-11.4-4.02-2.42-4.37-6.02-4.67-9.96-.64-8.35-1.4-16.7-2.1-25.05-.09-1.06-.15-2.12-.33-3.32-.11-.14-.15-.3-.12-.58-.1-1.6-.23-2.93-.36-4.25-.12-1.76-.24-3.52-.39-5.61,1.23.23,2.32.38,3.38.64,6.76,1.67,13.53,3.35,20.28,5.07,3.59.91,5.99,3.26,6.56,6.85,2.41,15.11,4.64,30.26,6.93,45.39.04.28.04.57.06,1.04m-18.14-52.59c-5.61-1.38-11.22-2.77-17.11-4.22.33,4.47.61,8.49.94,12.52.69,8.49,1.52,16.97,2.07,25.47.23,3.49,1.39,6.09,4.63,7.65,3.34,1.6,6.54,3.52,9.96,4.91,5.11,2.07,10.36,3.8,15.65,5.72.13-.68.23-.89.2-1.08-1.05-6.8-2.12-13.59-3.16-20.39-1.1-7.22-2.19-14.44-3.24-21.67-.54-3.72-1.65-6.97-5.86-7.96-1.24-.29-2.49-.58-4.08-.93Z" style="fill: #0b0a0b;"/>
  <path d="m40.4,232.08c.15,1.13.23,2.46.34,3.98-.15-1.13-.24-2.46-.34-3.98Z" style="fill: #2b2b37;"/>
  <path d="m83.69,139.6c-.49-2.55-.95-4.91-1.45-7.45h146.1c-.56,3.28-1.08,6.55-1.68,9.8-3.09,16.67-6.2,33.34-9.3,50.01-.25,1.33-.61,2.65-.74,3.99-.04.46.46.98.72,1.47.3-.41.78-.78.86-1.23,1.47-7.7,2.89-15.41,4.32-23.12.74-3.97,1.47-7.94,2.31-12.48.89,9.24.44,17.76-1.58,26.22-1.01,4.22-1.69,8.53-2.39,12.82-.21,1.28-.58,1.82-1.96,1.93-6.11.46-12.21,1.3-18.33,1.53-19.04.72-38.08,1.52-57.12,1.71-15.12.15-30.22-.84-45.24-2.82-1.35-.18-1.79-.71-2.03-1.9-3.9-18.99-7.82-37.97-11.74-56.96-.23-1.12-.49-2.23-.77-3.52Z" style="fill: #5c636b;"/>
  <path d="m228.35,159.28c-.43,2.27-.82,4.36-1.2,6.49-2.29-11.51.95-22.46,2.95-33.64h3.24c-1.67,9.1-3.3,18.04-4.99,27.15Z" style="fill: #585e65;"/>
  <path d="m112.44,98.32c.79-.33,1.53-.6,2.27-.6,29-.02,57.99,0,86.99-.05,1.81,0,2.48.37,2.45,2.34-.11,7.93-.1,15.85,0,23.78.02,1.82-.57,2.26-2.31,2.26-29.07-.05-58.13-.05-87.2,0-1.74,0-2.34-.43-2.32-2.26.1-8.43.06-16.85.13-25.47m11.69,25.98c25.21,0,50.41-.03,75.62.06,2.25,0,2.73-.66,2.69-2.77-.13-6.57-.12-13.14,0-19.71.04-1.98-.54-2.51-2.51-2.5-18.78.07-37.56.04-56.34.04-9.14,0-18.28.01-27.42-.01-1.28,0-2.16.04-2.14,1.76.08,7.14.06,14.28.01,21.42,0,1.3.43,1.77,1.73,1.73,2.64-.07,5.28-.02,8.35-.02Z" style="fill: #09090b;"/>
  <polygon points="135.53 316.38 135.53 344.2 156.5 344.2 162.86 350.56 169.22 344.2 181.83 344.2 181.83 316.38 135.53 316.38" style="fill: #565757;"/>
  <path d="m169.74,318.2c-5.71,0-10.34,4.63-10.34,10.34s4.63,10.34,10.34,10.34,10.34-4.63,10.34-10.34-4.63-10.34-10.34-10.34Zm0,18.74c-4.64,0-8.4-3.76-8.4-8.4s3.76-8.4,8.4-8.4,8.4,3.76,8.4,8.4-3.76,8.4-8.4,8.4Z" style="fill: #090a0c;"/>
  <path d="m148.64,318.2c-5.71,0-10.34,4.63-10.34,10.34s4.63,10.34,10.34,10.34,10.34-4.63,10.34-10.34-4.63-10.34-10.34-10.34Zm8.4,10.34c0,1.01-.19,1.98-.52,2.88h-7.89v-6.07h7.77c.4.98.63,2.06.63,3.19Zm-8.4,8.4c-4.64,0-8.4-3.76-8.4-8.4s3.76-8.4,8.4-8.4c2.91,0,5.48,1.48,6.98,3.73h-8.69v9.3h8.72c-1.5,2.27-4.08,3.78-7.01,3.78Z" style="fill: #090a0c;"/>
  <path d="m56.16,234.5c-5.71,0-10.34,4.63-10.34,10.34s4.63,10.34,10.34,10.34,10.34-4.63,10.34-10.34-4.63-10.34-10.34-10.34Zm0,18.74c-4.64,0-8.4-3.76-8.4-8.4s3.76-8.4,8.4-8.4,8.4,3.76,8.4,8.4-3.76,8.4-8.4,8.4Z" style="fill: #090a0c;"/>
  <circle cx="56.16" cy="244.84" r="8.4" style="fill: #fdfdfd;"/>
  <path d="m60.7,255.7c-5.71,0-10.34,4.63-10.34,10.34s4.63,10.34,10.34,10.34,10.34-4.63,10.34-10.34-4.63-10.34-10.34-10.34Zm0,18.74c-4.64,0-8.4-3.76-8.4-8.4s3.76-8.4,8.4-8.4,8.4,3.76,8.4,8.4-3.76,8.4-8.4,8.4Z" style="fill: #090a0c;"/>
  <circle cx="60.7" cy="266.04" r="8.4" style="fill: #f3a3a2;"/>
  <path d="m260.21,234.5c-5.71,0-10.34,4.63-10.34,10.34s4.63,10.34,10.34,10.34,10.34-4.63,10.34-10.34-4.63-10.34-10.34-10.34Zm0,18.74c-4.64,0-8.4-3.76-8.4-8.4s3.76-8.4,8.4-8.4,8.4,3.76,8.4,8.4-3.76,8.4-8.4,8.4Z" style="fill: #090a0c;"/>
  <circle cx="260.21" cy="244.84" r="8.4" style="fill: #fdfdfd;"/>
  <path d="m256.21,255.67c-5.71,0-10.34,4.63-10.34,10.34s4.63,10.34,10.34,10.34,10.34-4.63,10.34-10.34-4.63-10.34-10.34-10.34Zm0,18.74c-4.64,0-8.4-3.76-8.4-8.4s3.76-8.4,8.4-8.4,8.4,3.76,8.4,8.4-3.76,8.4-8.4,8.4Z" style="fill: #090a0c;"/>
  <circle cx="256.21" cy="266.01" r="8.4" style="fill: #f3a3a2;"/>
  <g>
    <path d="m193.46,304.37l-.05-.03h-.08v-.04l-3.77-2.17h-61.19l-3.81,2.2v.02h-.03l-.05.03-.02-.03h-31.54l.08.99,1.07,8.27c.42,2.23,1.07,7.72,1.17,8.49.1.77,1.81,13.19,2.13,15.56.81,5.89,1.65,11.78,2.45,17.68.64,4.7,1.29,9.41,1.81,14.13.28,2.55.93,3.46,4.17,4.39,0-.08,5.19,1.96,5.2,1.8,4.98,1.6,10.07,2.61,15.22,3.31l10.58,1.1c.24.02.49.04.73.06,7.63.61,15.31,1.28,22.94,1.1,6.57-.16,13.15-.41,19.7-.95.34.11,10.49-.89,10.89-1.19,4.52-.63,13.78-2.37,13.78-2.25.67-.14,3.55-.89,4.22-1.05,2.05-.49,6.01-2.92,6.48-4.3.76-2.24.74-4.74,1-7.14.61-5.64,1.16-11.3,1.81-16.93.63-5.49,1.35-10.98,2.04-16.47l.31-4.03c.42-2.83.69-5.68,1.03-8.75l.34-3.02c-.03.21-.05.42-.08.63l.16-1.35,1.01-8.96s.05-.44.13-1.13h-29.85l-.02.03Z" style="fill: #272727;"/>
    <path d="m223.03,307.41l-.85,7.03-.08.72c.36-2.57.63-5.16.93-7.75Z" style="fill: #272727;"/>
    <path d="m222.11,315.15l.08-.72-.16,1.35c.03-.21.05-.42.08-.63Z" style="fill: #272727;"/>
  </g>
  <polygon points="135.53 316.38 135.53 344.2 156.5 344.2 162.86 350.56 169.22 344.2 181.83 344.2 181.83 316.38 135.53 316.38" style="fill: #565757;"/>
  <g>
    <path d="m221.58,315.3l.08-.72-.16,1.35c.03-.21.05-.42.08-.63Z" style="fill: #0a0a0b;"/>
    <path d="m200.05,292.2c-35.55.09-71.11.11-106.66-.05-.95,0-1.9-.04-2.85-.11l-.05,1.9v8.34l.16,1.97c.28,1.83.58,3.72.87,5.61l2.49,18.26v1.66h.23l5.3,38.81c-.35,4.92,3.02,6.65,6.8,8.01,9.69,3.5,19.83,4.61,29.99,5.43,7.96.64,15.96,1.34,23.93,1.15,15.61-.38,31.23-1.25,46.49-5,2.67-.65,5.23-1.81,7.74-2.97,1.67-.78,2.5-2.17,2.69-4.24.69-7.46,1.71-14.88,2.46-22.33l2.2-18.86h.1v-.84c1.1-9.11,3.86-26.81,3.86-26.81v-10.02c-8.64.48-17.2.06-25.74.08Zm-63.52,1.8h87.15c0,1.7-.35,5.49-.64,8.29h-29.65l-3.37-1.95v-.27h-64.11v.73l-2.58,1.49h-31.08v-8.29h44.28Zm83.61,34.12h-5.91v15.72h-3.86v-21.34l3.5-3.5h7.31c-.3,2.81-.57,5.46-.96,8.07l-.08,1.05Zm-16.77,35.98h-11.05v-9.89c.23-4.77,4.2-8.61,9.03-8.61h2.02v18.51Zm-2.41-20.26h-1.4c-4.98,0-9.05,4.07-9.05,9.05v.17h-4.73v-8.53c0-1.88-.85-3.57-2.18-4.72v-14.5h4.62v7.52h11.87v-.03h0s8.48-8.47,8.48-8.47v19.52h-7.59Zm-14.53,13.35h-56.9v-2.38h2.26v-9.71c0-1.9.86-3.61,2.21-4.76v5.32h21.27l7.65,7.65,3.84-3.84,4.58,4.58,1.37-1.37-4.58-4.58,2.45-2.45h13.02v-3.16c.36.79.57,1.67.57,2.59v7.25s0,0,0,0v2.46h2.26v2.38Zm-8.81,6.84h-39.28v-5.08h39.28v5.08Zm-63.15-18.44h.14c4.83,0,8.8,3.84,9.03,8.61v9.89h-11.05v-18.51h1.88Zm1.94-1.75h-9v-19.52l8.48,8.48h0s0,.03,0,.03h11.87v-7.52h6.26v13.47c-2.24.95-3.82,3.18-3.82,5.76v8.53h-4.73v-.17c0-4.98-4.07-9.05-9.05-9.05Zm-14.68-15.53v-.19h-6.17c-.41-2.97-.76-5.53-.8-5.87-.05-.35-.21-1.69-.41-3.25h7.75l3.5,3.5v21.34h-3.86v-15.53Zm-8.99-21.13l-.22-1.69-.08-.98h9.22l24.28,24.28v2.29h-9.29l-23.9-23.9h0Zm31.15-2.67l.02.03.05-.03h.03v-.02l1.96-1.13v22.95l-21.8-21.8h19.75Zm3.9-2.22h60.44v21.16h-4.62v-8.47h-49.6v8.47h-6.26v-21.14l.03-.02Zm65.03,2.22l.05.03.02-.03h18.96l-21.8,21.8v-23.4l2.7,1.56v.04h.08Zm29.67,3.41h0s.04-.35.04-.35c-.01.12-.03.24-.04.35Zm-.06.06l-23.1,23.1h-9.29v-2.29l24.28-24.28h8.51c-.08.68-.13,1.11-.13,1.11l-.27,2.35Zm-59.48,37.7l2.41,2.41-2.48,2.48-4.88-4.88-1.48-1.48h-20.97v-27.82h46.29v27.82h-12.61l-1.48,1.48-1.04,1.04-1.04-1.04-1.48-1.48-.91-.91-.91.91-.46.46,1.02,1.02Zm52.59-28.34l6.57-6.57-.43,3.82.46-3.85.03-.03c-.17,1.54-.36,3.07-.58,4.6l-.23,2.03h-5.83Zm-122.44-7.33l7.33,7.33h-6.3c-.19-1.37-.38-2.72-.54-3.58l-.48-3.75Zm8.05,59.61c-.52-4.72-1.18-9.42-1.81-14.13-.8-5.9-1.64-11.79-2.45-17.68-.16-1.14-.64-4.64-1.1-8.03h4.12v15.81h5.68v28.49c-.17-.06-.27-.09-.27-.08-3.24-.93-3.89-1.84-4.17-4.39Zm6.26,5.13v-29.15h3.36v30.28c-.08-.03-.17-.05-.25-.07,0,.09-1.67-.52-3.11-1.06Zm28.92,5.47l-10.58-1.1c-.09-.01-.19-.03-.28-.04v-24.26h2.26v4.13h8.81v21.28c-.07,0-.13-.01-.2-.02Zm43.37.22c-.08,0-.17.01-.25.02v-21.5h8.81v-4.13h2.26v24.46c-.99.33-10.48,1.26-10.82,1.16Zm25.51-3.64v-31.2h3.36v30.35c-.53.13-2.25.58-3.36.85Zm14.72-45.7c-.69,5.49-1.41,10.97-2.04,16.47-.65,5.64-1.19,11.29-1.81,16.93-.26,2.4-.25,4.9-1,7.14-.35,1.04-2.68,2.67-4.68,3.62v-29.67h5.68v-15.81h3.96l-.1,1.31Z" style="fill: #0a0a0b;"/>
  </g>
  <path d="m169.45,318.48c-5.71,0-10.34,4.63-10.34,10.34s4.63,10.34,10.34,10.34,10.34-4.63,10.34-10.34-4.63-10.34-10.34-10.34Zm0,18.74c-4.64,0-8.4-3.76-8.4-8.4s3.76-8.4,8.4-8.4,8.4,3.76,8.4,8.4-3.76,8.4-8.4,8.4Z" style="fill: #090a0c;"/>
  <path d="m148.35,318.48c-5.71,0-10.34,4.63-10.34,10.34s4.63,10.34,10.34,10.34,10.34-4.63,10.34-10.34-4.63-10.34-10.34-10.34Zm8.4,10.34c0,1.01-.19,1.98-.52,2.88h-7.89v-6.07h7.77c.4.98.63,2.06.63,3.19Zm-8.4,8.4c-4.64,0-8.4-3.76-8.4-8.4s3.76-8.4,8.4-8.4c2.91,0,5.48,1.48,6.98,3.73h-8.69v9.3h8.72c-1.5,2.27-4.08,3.78-7.01,3.78Z" style="fill: #090a0c;"/>
</svg>